<?xml version="1.0" encoding="UTF-8" standalone="no"?>
<!DOCTYPE svg PUBLIC "-//W3C//DTD SVG 1.1//EN" "http://www.w3.org/Graphics/SVG/1.1/DTD/svg11.dtd">
<!-- Generated by graphviz version 2.40.1 (20161225.0304)
 -->
<!-- Title: %0 Pages: 1 -->
<svg width="291pt" height="44pt" viewBox="0.00 0.00 291.07 44.00" xmlns="http://www.w3.org/2000/svg" xmlns:xlink="http://www.w3.org/1999/xlink">
<g id="graph0" class="graph" transform="scale(1 1) rotate(0) translate(4 40)">
<title>%0</title>
<polygon fill="#ffffff" stroke="transparent" points="-4,4 -4,-40 287.0656,-40 287.0656,4 -4,4"/>
<!-- input -->
<g id="node1" class="node">
<title>input</title>
<ellipse fill="none" stroke="#000000" cx="30.8893" cy="-18" rx="30.7789" ry="18"/>
<text text-anchor="middle" x="30.8893" y="-13.8" font-family="Times,serif" font-size="14.00" fill="#000000">input</text>
</g>
<!-- hash function -->
<g id="node2" class="node">
<title>hash function</title>
<polygon fill="none" stroke="#000000" points="189.5021,-36 97.8705,-36 97.8705,0 189.5021,0 189.5021,-36"/>
<text text-anchor="middle" x="143.6863" y="-13.8" font-family="Times,serif" font-size="14.00" fill="#000000">hash function</text>
</g>
<!-- input&#45;&gt;hash function -->
<g id="edge1" class="edge">
<title>input-&gt;hash function</title>
<path fill="none" stroke="#000000" d="M62.0101,-18C69.8842,-18 78.5871,-18 87.2899,-18"/>
<polygon fill="#000000" stroke="#000000" points="87.4566,-21.5001 97.4565,-18 87.4565,-14.5001 87.4566,-21.5001"/>
</g>
<!-- hash -->
<g id="node3" class="node">
<title>hash</title>
<ellipse fill="none" stroke="#000000" cx="254.3299" cy="-18" rx="28.9735" ry="18"/>
<text text-anchor="middle" x="254.3299" y="-13.8" font-family="Times,serif" font-size="14.00" fill="#000000">hash</text>
</g>
<!-- hash function&#45;&gt;hash -->
<g id="edge2" class="edge">
<title>hash function-&gt;hash</title>
<path fill="none" stroke="#000000" d="M189.6479,-18C198.1643,-18 206.9855,-18 215.2723,-18"/>
<polygon fill="#000000" stroke="#000000" points="215.4199,-21.5001 225.4199,-18 215.4199,-14.5001 215.4199,-21.5001"/>
</g>
</g>
</svg>