<?xml version="1.0" encoding="UTF-8" standalone="no"?>
<!DOCTYPE svg PUBLIC "-//W3C//DTD SVG 1.1//EN" "http://www.w3.org/Graphics/SVG/1.1/DTD/svg11.dtd">
<!-- Generated by graphviz version 2.40.1 (20161225.0304)
 -->
<!-- Title: %0 Pages: 1 -->
<svg width="328pt" height="98pt" viewBox="0.00 0.00 327.56 98.00" xmlns="http://www.w3.org/2000/svg" xmlns:xlink="http://www.w3.org/1999/xlink">
<g id="graph0" class="graph" transform="scale(1 1) rotate(0) translate(4 94)">
<title>%0</title>
<polygon fill="#ffffff" stroke="transparent" points="-4,4 -4,-94 323.5614,-94 323.5614,4 -4,4"/>
<!-- private input -->
<g id="node1" class="node">
<title>private input</title>
<ellipse fill="none" stroke="#000000" cx="60.116" cy="-72" rx="60.2322" ry="18"/>
<text text-anchor="middle" x="60.116" y="-67.8" font-family="Times,serif" font-size="14.00" fill="#000000">private input</text>
</g>
<!-- program -->
<g id="node2" class="node">
<title>program</title>
<polygon fill="none" stroke="#000000" points="219.873,-63 156.0174,-63 156.0174,-27 219.873,-27 219.873,-63"/>
<text text-anchor="middle" x="187.9452" y="-40.8" font-family="Times,serif" font-size="14.00" fill="#000000">program</text>
</g>
<!-- private input&#45;&gt;program -->
<g id="edge1" class="edge">
<title>private input-&gt;program</title>
<path fill="none" stroke="#000000" d="M109.5381,-61.5611C121.6013,-59.0131 134.3916,-56.3116 146.0645,-53.846"/>
<polygon fill="#000000" stroke="#000000" points="146.9279,-57.241 155.9886,-51.7498 145.4812,-50.3921 146.9279,-57.241"/>
</g>
<!-- proof -->
<g id="node4" class="node">
<title>proof</title>
<ellipse fill="none" stroke="#000000" cx="287.6099" cy="-45" rx="31.9031" ry="18"/>
<text text-anchor="middle" x="287.6099" y="-40.8" font-family="Times,serif" font-size="14.00" fill="#000000">proof</text>
</g>
<!-- program&#45;&gt;proof -->
<g id="edge3" class="edge">
<title>program-&gt;proof</title>
<path fill="none" stroke="#000000" d="M219.7538,-45C227.8539,-45 236.6883,-45 245.2245,-45"/>
<polygon fill="#000000" stroke="#000000" points="245.4194,-48.5001 255.4194,-45 245.4193,-41.5001 245.4194,-48.5001"/>
</g>
<!-- public input -->
<g id="node3" class="node">
<title>public input</title>
<ellipse fill="none" stroke="#000000" cx="60.116" cy="-18" rx="57.386" ry="18"/>
<text text-anchor="middle" x="60.116" y="-13.8" font-family="Times,serif" font-size="14.00" fill="#000000">public input</text>
</g>
<!-- public input&#45;&gt;program -->
<g id="edge2" class="edge">
<title>public input-&gt;program</title>
<path fill="none" stroke="#000000" d="M108.0786,-28.1306C120.5869,-30.7726 133.9661,-33.5986 146.128,-36.1674"/>
<polygon fill="#000000" stroke="#000000" points="145.5043,-39.6128 156.0118,-38.255 146.951,-32.7639 145.5043,-39.6128"/>
</g>
</g>
</svg>